<svg width="92" height="95" viewBox="0 0 92 95" fill="none" xmlns="http://www.w3.org/2000/svg">
<g clip-path="url(#clip0_19_2)">
<path fill-rule="evenodd" clip-rule="evenodd" d="M20.2547 44.0674H72.0326V28.868H55.5368C53.805 28.868 51.3949 27.9635 50.2537 26.8579C49.1124 25.7524 48.4181 23.7577 48.4181 22.0878V5.90658H6.50418C6.36053 5.90658 6.2488 5.97616 6.17698 6.04574C6.05727 6.12305 6.02534 6.22355 6.02534 6.37044V88.6682C6.02534 88.7764 6.09717 88.9156 6.16899 88.9852C6.24082 89.0934 6.39245 89.1243 6.4962 89.1243C24.6759 89.1243 52.8553 89.1243 71.5458 89.1243C71.6895 89.1243 71.6815 89.0548 71.7613 88.9852C71.873 88.9156 72.0247 88.7687 72.0247 88.6682V80.0403H20.2547C16.9507 80.0403 14.2214 77.4117 14.2214 74.1956V49.9044C14.2214 46.696 16.9348 44.0674 20.2547 44.0674ZM36.6149 63.6658L41.6346 65.1347C41.2995 66.4954 40.7648 67.6396 40.0385 68.5518C39.3123 69.4641 38.4185 70.1599 37.3411 70.6238C36.2637 71.0876 34.899 71.3196 33.2391 71.3196C31.22 71.3196 29.576 71.0335 28.2991 70.4692C27.0222 69.897 25.9209 68.8997 24.9952 67.4772C24.0694 66.0547 23.5986 64.2224 23.5986 61.9958C23.5986 59.0271 24.4126 56.7464 26.0406 55.1538C27.6766 53.5612 29.983 52.7649 32.9677 52.7649C35.2981 52.7649 37.1416 53.221 38.4743 54.1333C39.8071 55.0456 40.8047 56.4526 41.4511 58.3468L36.4074 59.4291C36.2318 58.8879 36.0482 58.4859 35.8487 58.2385C35.5215 57.8133 35.1305 57.4886 34.6676 57.2644C34.2047 57.0325 33.686 56.9242 33.1114 56.9242C31.8106 56.9242 30.813 57.4268 30.1187 58.4395C29.5999 59.1894 29.3366 60.3646 29.3366 61.9649C29.3366 63.9518 29.6478 65.3125 30.2703 66.0547C30.8928 66.7891 31.7707 67.1602 32.9039 67.1602C33.9972 67.1602 34.8272 66.8664 35.3859 66.2634C35.9605 65.6604 36.3595 64.8022 36.6149 63.6658ZM43.4702 65.0728L48.9049 64.7404C49.0247 65.5908 49.2641 66.248 49.6232 66.6886C50.2138 67.4154 51.0517 67.7787 52.153 67.7787C52.967 67.7787 53.5975 67.5932 54.0364 67.2221C54.4834 66.851 54.6988 66.418 54.6988 65.931C54.6988 65.4671 54.4913 65.0496 54.0764 64.6786C53.6614 64.3075 52.6797 63.9673 51.1555 63.6348C48.6416 63.0937 46.8619 62.3669 45.7925 61.4547C44.7151 60.5501 44.1725 59.3982 44.1725 57.9911C44.1725 57.0711 44.4518 56.2052 45.0024 55.3857C45.5531 54.5662 46.3831 53.9168 47.4924 53.453C48.6017 52.9814 50.118 52.7494 52.0493 52.7494C54.4195 52.7494 56.2231 53.1746 57.4601 54.0328C58.7051 54.8832 59.4393 56.2439 59.6787 58.1071L54.2918 58.4163C54.1482 57.6046 53.8449 57.0093 53.39 56.6382C52.9271 56.2671 52.2967 56.0815 51.4906 56.0815C50.8283 56.0815 50.3255 56.2207 49.9823 56.4913C49.6471 56.7619 49.4795 57.0943 49.4795 57.4886C49.4795 57.7747 49.6152 58.0298 49.8866 58.254C50.1499 58.4936 50.7884 58.7101 51.7939 58.9111C54.2998 59.4368 56.0875 59.9626 57.1648 60.496C58.2502 61.0295 59.0403 61.6943 59.5271 62.4829C60.0219 63.2715 60.2613 64.1606 60.2613 65.1424C60.2613 66.2943 59.9341 67.3535 59.2797 68.3276C58.6173 69.294 57.7075 70.0362 56.5264 70.5387C55.3453 71.0413 53.8609 71.2887 52.0732 71.2887C48.9209 71.2887 46.7422 70.7011 45.5292 69.526C44.3161 68.374 43.6298 66.8819 43.4702 65.0728ZM61.3786 53.0587H67.364L71.5378 65.9774L75.6558 53.0587H81.4657L74.5864 71.0103H68.3855L61.3786 53.0587ZM78.042 44.0674H85.9667C89.2866 44.0674 92 46.7037 92 49.9121V74.2033C92 77.4117 89.2786 80.048 85.9667 80.048H78.042V90.5237C78.042 91.7684 77.5233 92.8739 76.6853 93.6934C75.8394 94.5129 74.6981 95.0077 73.4133 95.0077C49.9185 95.0077 28.2512 95.0077 4.63673 95.0077C3.35185 95.0077 2.21063 94.5129 1.36469 93.6934C0.518752 92.8739 0.00799561 91.7684 0.00799561 90.5237V4.5227C0.00799561 3.27799 0.526733 2.17244 1.36469 1.35295C2.21063 0.533447 3.38378 0.0386556 4.63673 0.0386556H51.4986C51.6024 0 51.7141 0 51.8258 0C52.3366 0 52.8553 0.216471 53.2224 0.533447H53.2943C53.3661 0.572103 53.406 0.603027 53.4778 0.672607L77.4115 24.1443C77.8185 24.5386 78.1138 25.072 78.1138 25.675C78.1138 25.8529 78.0739 25.992 78.042 26.1776V44.0674ZM53.8848 21.6239V6.91162L70.9872 23.6881H56.0156C55.4251 23.6881 54.9143 23.4408 54.5073 23.0851C54.1402 22.7295 53.8848 22.196 53.8848 21.6239Z" fill="#00C23A"/>
</g>
<defs>
<clipPath id="clip0_19_2">
<rect width="92" height="95" fill="white"/>
</clipPath>
</defs>
</svg>
